<svg xmlns="http://www.w3.org/2000/svg" viewBox="-44.01 0 386.61 429.92" width="387" height="430" role="img"><title>Bright Eyed vertical lockup, dusk</title><defs><mask id="k" maskUnits="userSpaceOnUse" x="0" y="0" width="300" height="300"><rect x="0" y="0" width="300" height="300" fill="#fff"></rect><path d="M64 0 Q73.05 54.95 128 64 Q73.05 73.05 64 128 Q54.95 73.05 0 64 Q54.95 54.95 64 0 Z" transform="scale(2.34375)" fill="#000"></path></mask></defs><rect x="0" y="0" width="300" height="300" fill="#33344A" mask="url(#k)"></rect><path d="M-23.120 408.623Q-30.189 408.623-35.432 403.936L-35.432 403.936L-30.825 395.437Q-30.825 399.488-29.276 402.109Q-27.727 404.731-25.463 405.882Q-23.199 407.034-21.055 407.034L-21.055 407.034Q-17.163 407.034-15.097 403.539Q-13.032 400.044-13.032 393.610L-13.032 393.610Q-13.032 386.620-15.495 383.086Q-17.957 379.551-22.246 379.551L-22.246 379.551Q-26.774 379.551-31.857 384.158L-31.857 384.158L-32.572 383.523Q-29.157 379.948-26.099 377.923Q-23.040 375.897-18.910 375.897L-18.910 375.897Q-15.415 375.897-12.437 377.565Q-9.458 379.233-7.671 382.570Q-5.884 385.906-5.884 390.671L-5.884 390.671Q-5.884 396.390-8.306 400.441Q-10.729 404.492-14.700 406.557Q-18.672 408.623-23.120 408.623L-23.120 408.623ZM-40.992 408.067L-41.151 408.067Q-41.468 408.067-41.548 407.789Q-41.627 407.511-41.389 407.352L-41.389 407.352Q-39.244 406.001-38.251 404.214Q-37.258 402.427-37.258 399.409L-37.258 399.409L-37.258 360.567Q-37.258 357.787-37.775 356.556Q-38.291 355.325-39.641 355.325L-39.641 355.325Q-40.912 355.325-42.819 356.278L-42.819 356.278L-42.898 356.278Q-43.216 356.278-43.375 355.881Q-43.533 355.484-43.375 355.325L-43.375 355.325L-32.334 350.083L-31.937 350.003Q-31.619 350.003-31.222 350.321Q-30.825 350.639-30.825 350.877L-30.825 350.877L-30.825 403.380L-40.992 408.067ZM11.750 385.111Q16.039 380.028 18.581 378.082Q21.122 376.136 23.108 376.136L23.108 376.136Q24.856 376.136 26.524 377.327Q28.192 378.519 28.192 380.187L28.192 380.187Q28.192 381.696 27.318 382.609Q26.444 383.523 24.856 383.523L24.856 383.523Q23.823 383.523 23.188 383.126Q22.552 382.728 21.758 381.934L21.758 381.934Q21.043 381.219 20.487 380.862Q19.931 380.504 19.137 380.504L19.137 380.504Q18.104 380.504 16.793 381.537Q15.483 382.570 12.306 386.064L12.306 386.064L11.750 385.111ZM3.251 407.590Q3.012 407.590 3.012 407.113Q3.012 406.637 3.251 406.637L3.251 406.637Q5.951 406.637 6.825 405.525Q7.699 404.413 7.699 401.156L7.699 401.156L7.699 385.985Q7.699 383.443 7.103 382.252Q6.507 381.060 5.157 381.060L5.157 381.060Q3.966 381.060 1.185 382.252L1.185 382.252L1.106 382.252Q0.788 382.252 0.629 381.855Q0.471 381.458 0.709 381.378L0.709 381.378L11.114 376.295Q11.591 376.136 11.670 376.136L11.670 376.136Q12.544 376.136 13.338 378.121Q14.133 380.107 14.133 383.284L14.133 383.284L14.133 401.156Q14.133 403.380 14.768 404.532Q15.403 405.684 16.952 406.160Q18.501 406.637 21.440 406.637L21.440 406.637Q21.758 406.637 21.758 407.113Q21.758 407.590 21.440 407.590L21.440 407.590Q18.740 407.590 17.151 407.511L17.151 407.511L10.955 407.431L6.348 407.511Q5.236 407.590 3.251 407.590L3.251 407.590ZM36.373 407.590Q36.134 407.590 36.134 407.113Q36.134 406.637 36.373 406.637L36.373 406.637Q39.073 406.637 39.987 405.525Q40.900 404.413 40.900 401.156L40.900 401.156L40.900 386.700Q40.900 383.999 40.344 382.768Q39.788 381.537 38.438 381.537L38.438 381.537Q37.167 381.537 35.261 382.490L35.261 382.490L35.181 382.490Q34.864 382.490 34.705 382.093Q34.546 381.696 34.784 381.537L34.784 381.537L46.222 376.215L46.460 376.136Q46.778 376.136 47.136 376.493Q47.493 376.851 47.493 377.089L47.493 377.089L47.493 378.757Q47.334 382.093 47.334 386.620L47.334 386.620L47.334 401.156Q47.334 404.413 48.248 405.525Q49.161 406.637 51.862 406.637L51.862 406.637Q52.100 406.637 52.100 407.113Q52.100 407.590 51.862 407.590L51.862 407.590Q49.876 407.590 48.684 407.511L48.684 407.511L44.077 407.431L39.471 407.511Q38.359 407.590 36.373 407.590L36.373 407.590ZM43.680 367.796Q41.615 367.796 40.463 366.684Q39.312 365.572 39.312 363.506L39.312 363.506Q39.312 361.600 40.463 360.488Q41.615 359.376 43.680 359.376L43.680 359.376Q45.666 359.376 46.738 360.488Q47.811 361.600 47.811 363.506L47.811 363.506Q47.811 365.572 46.738 366.684Q45.666 367.796 43.680 367.796L43.680 367.796ZM71.560 429.910Q66.079 429.910 62.704 427.447Q59.328 424.985 59.328 421.014L59.328 421.014Q59.328 417.916 61.790 414.818Q64.252 411.720 69.733 408.464L69.733 408.464L70.527 409.417Q68.145 410.767 66.874 412.634Q65.603 414.500 65.603 417.360L65.603 417.360Q65.603 422.126 68.502 424.787Q71.401 427.447 75.849 427.447L75.849 427.447Q80.377 427.447 83.157 424.787Q85.937 422.126 85.937 417.598L85.937 417.598Q85.937 414.262 84.467 412.713Q82.998 411.164 80.575 410.807Q78.153 410.449 73.625 410.370L73.625 410.370Q67.906 410.291 64.729 409.139Q61.552 407.987 61.552 404.333L61.552 404.333Q61.552 401.553 63.418 399.170Q65.285 396.788 69.177 394.563L69.177 394.563L69.971 395.119Q68.224 396.232 67.430 397.463Q66.635 398.694 66.635 400.282L66.635 400.282Q66.635 403.142 68.979 403.936Q71.322 404.731 77.120 404.810L77.120 404.810Q81.648 404.889 84.507 405.287Q87.367 405.684 89.472 407.511Q91.576 409.337 91.576 413.230L91.576 413.230Q91.576 417.598 88.796 421.451Q86.016 425.303 81.409 427.606Q76.802 429.910 71.560 429.910L71.560 429.910ZM73.228 397.026Q69.574 397.026 66.794 395.517Q64.014 394.007 62.505 391.585Q60.996 389.162 60.996 386.462L60.996 386.462Q60.996 383.364 62.902 381.060Q64.809 378.757 67.867 377.565Q70.925 376.374 74.420 376.374L74.420 376.374Q78.153 376.374 80.933 377.724Q83.713 379.075 85.222 381.378Q86.731 383.682 86.731 386.382L86.731 386.382Q86.731 389.401 84.825 391.863Q82.919 394.325 79.821 395.675Q76.723 397.026 73.228 397.026L73.228 397.026ZM75.134 395.675Q77.200 395.675 78.550 393.928Q79.900 392.181 79.900 388.447L79.900 388.447Q79.900 385.111 78.748 382.689Q77.597 380.266 75.810 379.035Q74.022 377.804 72.037 377.804L72.037 377.804Q67.747 377.804 67.747 384.238L67.747 384.238Q67.747 387.653 68.820 390.235Q69.892 392.816 71.600 394.246Q73.308 395.675 75.134 395.675L75.134 395.675ZM81.251 380.028Q83.872 378.121 86.294 377.168Q88.717 376.215 91.497 376.215L91.497 376.215Q92.053 376.215 92.053 378.280L92.053 378.280Q92.053 379.313 91.775 380.504Q91.497 381.696 91.179 381.537L91.179 381.537Q88.240 380.266 85.460 380.266L85.460 380.266Q83.475 380.266 81.727 380.822L81.727 380.822L81.171 382.570L81.251 380.028ZM97.851 407.590Q97.613 407.590 97.613 407.113Q97.613 406.637 97.851 406.637L97.851 406.637Q100.552 406.637 101.465 405.525Q102.379 404.413 102.379 401.156L102.379 401.156L102.379 360.567Q102.379 357.787 101.823 356.556Q101.267 355.325 99.996 355.325L99.996 355.325Q98.804 355.325 96.739 356.278L96.739 356.278L96.660 356.278Q96.421 356.278 96.223 355.841Q96.024 355.404 96.263 355.325L96.263 355.325L107.303 350.083L107.701 350.003Q108.018 350.003 108.376 350.321Q108.733 350.639 108.733 350.877L108.733 350.877L108.733 401.156Q108.733 404.413 109.647 405.525Q110.560 406.637 113.261 406.637L113.261 406.637Q113.578 406.637 113.578 407.113Q113.578 407.590 113.261 407.590L113.261 407.590Q111.275 407.590 110.083 407.511L110.083 407.511L105.556 407.431L101.028 407.511Q99.837 407.590 97.851 407.590L97.851 407.590ZM119.218 407.590Q118.980 407.590 118.980 407.113Q118.980 406.637 119.218 406.637L119.218 406.637Q121.918 406.637 122.832 405.525Q123.745 404.413 123.745 401.156L123.745 401.156L123.745 389.321Q123.745 384.873 122.077 382.728Q120.409 380.584 116.914 380.584L116.914 380.584Q114.293 380.584 111.672 382.053Q109.051 383.523 107.303 385.906L107.303 385.906L106.906 384.952Q113.261 376.056 120.886 376.056L120.886 376.056Q125.175 376.056 127.637 378.677Q130.100 381.299 130.100 385.826L130.100 385.826L130.100 401.156Q130.100 404.413 131.013 405.525Q131.927 406.637 134.627 406.637L134.627 406.637Q134.945 406.637 134.945 407.113Q134.945 407.590 134.627 407.590L134.627 407.590Q132.642 407.590 131.450 407.511L131.450 407.511L126.923 407.431L122.395 407.511Q121.204 407.590 119.218 407.590L119.218 407.590ZM154.008 408.543Q150.593 408.543 148.249 406.915Q145.906 405.287 145.906 401.474L145.906 401.474L145.906 383.523Q145.906 380.902 145.072 380.028Q144.238 379.154 141.855 379.154L141.855 379.154Q141.776 379.154 141.657 378.955Q141.537 378.757 141.537 378.519L141.537 378.519Q141.537 378.280 141.657 378.082Q141.776 377.883 141.855 377.883L141.855 377.883Q149.322 377.565 151.228 371.449L151.228 371.449Q151.307 371.132 151.863 371.132L151.863 371.132Q152.419 371.132 152.419 371.449L152.419 371.449L152.419 398.853Q152.419 401.950 153.968 403.420Q155.517 404.889 158.297 404.889L158.297 404.889Q161.633 404.889 164.572 402.586L164.572 402.586L164.731 402.506Q164.969 402.506 165.168 402.864Q165.366 403.221 165.128 403.380L165.128 403.380Q162.189 406.081 159.568 407.312Q156.947 408.543 154.008 408.543L154.008 408.543ZM162.666 380.902Q156.947 379.631 150.116 379.631L150.116 379.631L150.116 377.724Q155.199 377.724 162.984 376.930L162.984 376.930Q163.142 376.930 163.341 377.526Q163.540 378.121 163.540 378.836L163.540 378.836Q163.540 379.551 163.262 380.266Q162.984 380.981 162.666 380.902L162.666 380.902ZM209.291 408.543Q204.446 408.543 200.911 406.399Q197.376 404.254 195.510 400.759Q193.643 397.264 193.643 393.213L193.643 393.213Q193.643 388.527 195.947 384.635Q198.250 380.743 202.261 378.479Q206.273 376.215 211.197 376.215L211.197 376.215Q215.963 376.215 218.544 378.519Q221.126 380.822 221.126 385.350L221.126 385.350Q221.126 386.541 220.927 387.097Q220.729 387.653 220.252 387.653L220.252 387.653L213.739 387.653Q214.136 377.804 208.338 377.804L208.338 377.804Q204.763 377.804 202.738 381.060Q200.712 384.317 200.712 389.877L200.712 389.877Q200.712 396.867 203.969 400.958Q207.226 405.048 213.183 405.048L213.183 405.048Q215.407 405.048 216.916 404.492Q218.425 403.936 220.888 402.665L220.888 402.665L221.047 402.586Q221.205 402.586 221.404 402.904Q221.603 403.221 221.444 403.380L221.444 403.380Q218.584 406.081 215.645 407.312Q212.706 408.543 209.291 408.543L209.291 408.543ZM198.409 387.732L198.330 386.382L215.963 386.064L215.963 387.653L198.409 387.732ZM261.873 376.930Q262.032 376.930 262.032 377.407Q262.032 377.883 261.873 377.883L261.873 377.883Q259.490 377.883 257.783 379.789Q256.075 381.696 254.645 385.588L254.645 385.588L245.511 409.814Q242.651 417.439 240.030 421.808Q237.409 426.177 234.708 428.043Q232.008 429.910 228.751 429.910L228.751 429.910Q226.527 429.910 225.296 428.996Q224.065 428.083 224.065 426.256L224.065 426.256Q224.065 424.747 225.058 423.873Q226.050 422.999 227.480 422.999L227.480 422.999Q228.433 422.999 229.029 423.238Q229.625 423.476 230.498 424.032L230.498 424.032Q231.849 425.065 233.279 425.065L233.279 425.065Q235.264 425.065 236.893 423.357Q238.521 421.649 240.388 417.757Q242.254 413.865 244.955 406.557L244.955 406.557L244.716 410.211L231.611 383.523Q229.784 380.028 228.830 378.955Q227.877 377.883 226.368 377.883L226.368 377.883Q226.209 377.883 226.209 377.407Q226.209 376.930 226.368 376.930L226.368 376.930Q228.433 376.930 229.545 377.009L229.545 377.009L232.643 377.089L238.044 377.009Q239.236 376.930 241.301 376.930L241.301 376.930Q241.539 376.930 241.539 377.407Q241.539 377.883 241.301 377.883L241.301 377.883Q239.156 377.883 238.124 378.241Q237.091 378.598 237.091 379.472L237.091 379.472Q237.091 380.107 237.568 380.981L237.568 380.981L247.894 402.189L245.431 406.399L252.659 385.588Q253.295 383.523 253.295 382.172L253.295 382.172Q253.295 377.883 247.973 377.883L247.973 377.883Q247.814 377.883 247.814 377.407Q247.814 376.930 247.973 376.930L247.973 376.930Q250.118 376.930 251.230 377.009L251.230 377.009L255.996 377.089L259.093 377.009Q259.967 376.930 261.873 376.930L261.873 376.930ZM282.684 408.543Q277.839 408.543 274.304 406.399Q270.769 404.254 268.903 400.759Q267.036 397.264 267.036 393.213L267.036 393.213Q267.036 388.527 269.340 384.635Q271.643 380.743 275.654 378.479Q279.665 376.215 284.590 376.215L284.590 376.215Q289.356 376.215 291.937 378.519Q294.519 380.822 294.519 385.350L294.519 385.350Q294.519 386.541 294.320 387.097Q294.122 387.653 293.645 387.653L293.645 387.653L287.132 387.653Q287.529 377.804 281.731 377.804L281.731 377.804Q278.156 377.804 276.131 381.060Q274.105 384.317 274.105 389.877L274.105 389.877Q274.105 396.867 277.362 400.958Q280.619 405.048 286.576 405.048L286.576 405.048Q288.800 405.048 290.309 404.492Q291.818 403.936 294.281 402.665L294.281 402.665L294.439 402.586Q294.598 402.586 294.797 402.904Q294.995 403.221 294.837 403.380L294.837 403.380Q291.977 406.081 289.038 407.312Q286.099 408.543 282.684 408.543L282.684 408.543ZM271.802 387.732L271.722 386.382L289.356 386.064L289.356 387.653L271.802 387.732ZM315.568 408.623Q312.152 408.623 309.293 406.756Q306.433 404.889 304.765 401.394Q303.097 397.900 303.097 393.213L303.097 393.213Q303.097 387.335 305.877 383.443Q308.657 379.551 312.867 377.724Q317.077 375.897 321.287 375.897L321.287 375.897Q326.450 375.897 331.056 378.757L331.056 378.757L329.547 384.794Q327.641 381.219 325.377 379.511Q323.113 377.804 319.777 377.804L319.777 377.804Q315.250 377.804 312.748 380.981Q310.246 384.158 310.246 390.751L310.246 390.751Q310.246 397.423 312.867 401.275Q315.488 405.128 319.539 405.128L319.539 405.128Q322.557 405.128 324.980 403.539Q327.403 401.950 330.183 398.932L330.183 398.932L330.898 399.568Q327.244 403.618 323.709 406.121Q320.175 408.623 315.568 408.623L315.568 408.623ZM334.393 398.535Q334.393 401.315 334.949 402.467Q335.505 403.618 336.855 403.618L336.855 403.618Q338.443 403.618 340.429 402.665L340.429 402.665L340.509 402.665Q340.747 402.665 340.945 403.062Q341.144 403.460 340.906 403.539L340.906 403.539L330.739 408.464L330.262 408.543Q329.309 408.543 328.634 406.557Q327.959 404.572 327.959 401.077L327.959 401.077L327.959 360.567Q327.959 357.787 327.442 356.556Q326.926 355.325 325.576 355.325L325.576 355.325Q324.702 355.325 322.399 356.278L322.399 356.278L322.240 356.278Q321.922 356.278 321.763 355.881Q321.604 355.484 321.843 355.404L321.843 355.404L332.963 350.083L333.281 350.003Q333.598 350.003 333.995 350.321Q334.393 350.639 334.393 350.877L334.393 350.877L334.393 398.535Z" fill="#33344A"></path></svg>